<?xml version="1.0" standalone="no"?>
<!DOCTYPE svg PUBLIC "-//W3C//DTD SVG 20010904//EN"
 "http://www.w3.org/TR/2001/REC-SVG-20010904/DTD/svg10.dtd">
<svg version="1.0" xmlns="http://www.w3.org/2000/svg"
 width="1235.000000pt" height="1235.000000pt" viewBox="0 0 1235.000000 1235.000000"
 preserveAspectRatio="xMidYMid meet">
<metadata>
Created by potrace 1.14, written by Peter Selinger 2001-2017
</metadata>
<g transform="translate(0.000000,1235.000000) scale(0.100000,-0.100000)"
fill="#000000" stroke="none">
<path d="M0 6175 l0 -6175 6175 0 6175 0 0 6175 0 6175 -6175 0 -6175 0 0
-6175z m4010 4820 l0 -155 155 0 155 0 0 -620 0 -620 155 0 155 0 0 -775 0
-775 155 0 155 0 0 -1085 0 -1085 155 0 155 0 0 -930 0 -930 155 0 155 0 0
-465 0 -465 155 0 155 0 0 -465 0 -465 155 0 155 0 0 -155 0 -155 -155 0 -155
0 0 -155 0 -155 -155 0 -155 0 0 155 0 155 -155 0 -155 0 0 310 0 310 -155 0
-155 0 0 310 0 310 -155 0 -155 0 0 620 0 620 -155 0 -155 0 0 310 0 310 -620
0 -620 0 0 -155 0 -155 -155 0 -155 0 0 155 0 155 -310 0 -310 0 0 -775 0
-775 -155 0 -155 0 0 -775 0 -775 -155 0 -155 0 0 -155 0 -155 -310 0 -310 0
0 620 0 620 155 0 155 0 0 930 0 930 155 0 155 0 0 698 c0 383 3 802 7 930 l6
232 149 0 148 0 0 775 0 775 155 0 155 0 0 310 0 310 155 0 155 0 0 310 0 310
155 0 155 0 0 310 0 310 155 0 155 0 0 310 0 310 155 0 155 0 0 310 0 310 310
0 310 0 0 -155z m7440 -620 l0 -155 155 0 155 0 0 -155 0 -155 -155 0 -155 0
0 -155 0 -155 -465 0 -465 0 0 -155 0 -155 -465 0 -465 0 0 -155 0 -155 -155
0 -155 0 0 -155 0 -155 -155 0 -155 0 0 -155 0 -155 -155 0 -155 0 0 -155 0
-155 -155 0 -155 0 0 -465 0 -465 -155 0 -155 0 0 -465 0 -465 -155 0 -155 0
0 -1395 0 -1395 155 0 155 0 0 -310 0 -310 310 0 310 0 0 -155 0 -155 930 0
930 0 0 -155 0 -155 155 0 155 0 0 -155 0 -155 -155 0 -155 0 0 -155 0 -155
-930 0 -930 0 0 155 0 155 -310 0 -310 0 0 155 0 155 -310 0 -310 0 0 310 0
310 -155 0 -155 0 0 310 0 310 -155 0 -155 0 0 1240 0 1240 155 0 155 0 0 620
0 620 155 0 155 0 0 465 0 465 155 0 155 0 0 310 0 310 155 0 155 0 0 155 0
155 155 0 155 0 0 155 0 155 155 0 155 0 0 155 0 155 155 0 155 0 0 155 0 155
465 0 465 0 0 155 0 155 465 0 465 0 0 155 0 155 310 0 310 0 0 -155z"/>
<path d="M3390 8980 l0 -310 -155 0 -155 0 0 -310 0 -310 -155 0 -155 0 0
-620 0 -620 -155 0 -155 0 0 -620 0 -620 775 0 775 0 0 155 0 155 155 0 155 0
0 310 0 310 -155 0 -155 0 0 930 0 930 -155 0 -155 0 0 465 0 465 -155 0 -155
0 0 -310z"/>
</g>
</svg>
